<?xml version="1.0" encoding="iso-8859-1"?>
<!-- Uploaded to: SVG Repo, www.svgrepo.com, Generator: SVG Repo Mixer Tools -->
<svg fill="#000000" height="800px" width="800px" version="1.1" id="Layer_1" xmlns="http://www.w3.org/2000/svg" xmlns:xlink="http://www.w3.org/1999/xlink" 
	 viewBox="0 0 512 512" xml:space="preserve">
<g>
	<g>
		<g>
			<path d="M256,0C114.837,0,0,114.837,0,256s114.837,256,256,256s256-114.837,256-256S397.163,0,256,0z M362.667,384
				c0,7.68-4.117,14.784-10.816,18.56c-3.264,1.856-6.891,2.773-10.517,2.773c-3.797,0-7.595-1.003-10.987-3.051l-99.072-59.435
				c-1.643-1.003-3.52-1.515-5.44-1.515h-76.501c-23.531,0-42.667-19.136-42.667-42.667v-85.333
				c0-23.531,19.136-42.667,42.667-42.667h76.501c1.92,0,3.797-0.512,5.44-1.493l99.072-59.456
				c6.592-3.989,14.827-4.075,21.504-0.277c6.699,3.776,10.816,10.88,10.816,18.56V384z"/>
			<path d="M225.833,213.333h-76.501v85.333h76.501c9.643,0,19.115,2.624,27.392,7.595l66.773,40.064V165.675l-66.773,40.064
				C244.947,210.709,235.475,213.333,225.833,213.333z"/>
		</g>
	</g>
</g>
</svg>